<svg width="1159" height="137" viewBox="0 0 1159 137" fill="none" xmlns="http://www.w3.org/2000/svg">
<g filter="url(#filter0_d_1473_3152)">
<path d="M24.6772 111V25.92H39.6772L46.1572 43.32V111H24.6772ZM83.3572 111L33.6772 47.88L39.6772 25.92L89.4772 89.04L83.3572 111ZM83.3572 111L77.8372 93.12V25.92H99.3172V111H83.3572ZM155.843 112.56C149.283 112.56 143.243 111.44 137.723 109.2C132.203 106.96 127.363 103.84 123.203 99.84C119.123 95.84 115.923 91.16 113.603 85.8C111.283 80.36 110.123 74.52 110.123 68.28C110.123 62.04 111.243 56.28 113.483 51C115.803 45.64 119.003 40.96 123.083 36.96C127.163 32.96 131.963 29.88 137.483 27.72C143.003 25.48 149.043 24.36 155.603 24.36C162.163 24.36 168.203 25.48 173.723 27.72C179.243 29.88 184.043 32.96 188.123 36.96C192.203 40.96 195.363 45.64 197.603 51C199.923 56.36 201.083 62.16 201.083 68.4C201.083 74.64 199.923 80.44 197.603 85.8C195.363 91.16 192.203 95.88 188.123 99.96C184.043 103.96 179.243 107.08 173.723 109.32C168.283 111.48 162.323 112.56 155.843 112.56ZM155.603 93.36C160.403 93.36 164.563 92.32 168.083 90.24C171.603 88.16 174.323 85.24 176.243 81.48C178.163 77.72 179.123 73.32 179.123 68.28C179.123 64.6 178.563 61.24 177.443 58.2C176.403 55.16 174.843 52.56 172.763 50.4C170.683 48.16 168.203 46.44 165.323 45.24C162.443 44.04 159.203 43.44 155.603 43.44C150.803 43.44 146.643 44.48 143.123 46.56C139.603 48.56 136.883 51.44 134.963 55.2C133.043 58.96 132.083 63.32 132.083 68.28C132.083 72.12 132.603 75.6 133.643 78.72C134.763 81.76 136.363 84.4 138.443 86.64C140.523 88.8 143.003 90.48 145.883 91.68C148.763 92.8 152.003 93.36 155.603 93.36ZM234.579 111L202.539 25.92H225.459L249.459 94.68H239.619L263.979 25.92H286.419L254.019 111H234.579ZM278.476 111L311.476 25.92H332.236L364.876 111H342.436L317.836 39.48H325.636L300.436 111H278.476ZM298.516 96.12V79.08H345.436V96.12H298.516ZM372.841 111V25.92H394.321V111H372.841ZM431.552 111V25.92H453.032V111H431.552ZM448.592 111V92.88H494.672V111H448.592ZM448.592 76.44V58.8H490.352V76.44H448.592ZM448.592 44.04V25.92H493.952V44.04H448.592ZM546.66 112.32C540.18 112.32 534.18 111.24 528.66 109.08C523.14 106.84 518.3 103.76 514.14 99.84C510.06 95.84 506.86 91.16 504.54 85.8C502.3 80.44 501.18 74.64 501.18 68.4C501.18 62.08 502.3 56.28 504.54 51C506.86 45.64 510.06 41 514.14 37.08C518.3 33.16 523.1 30.08 528.54 27.84C534.06 25.6 540.02 24.48 546.42 24.48C553.14 24.48 559.18 25.56 564.54 27.72C569.9 29.8 574.62 32.72 578.7 36.48L564.3 50.88C562.3 48.64 559.82 46.88 556.86 45.6C553.9 44.32 550.42 43.68 546.42 43.68C542.98 43.68 539.82 44.24 536.94 45.36C534.14 46.48 531.7 48.16 529.62 50.4C527.54 52.56 525.9 55.16 524.7 58.2C523.58 61.24 523.02 64.64 523.02 68.4C523.02 72.16 523.58 75.56 524.7 78.6C525.9 81.64 527.54 84.28 529.62 86.52C531.7 88.68 534.14 90.36 536.94 91.56C539.82 92.68 542.98 93.24 546.42 93.24C550.42 93.24 553.94 92.64 556.98 91.44C560.02 90.16 562.62 88.36 564.78 86.04L579.18 100.44C575.02 104.2 570.3 107.12 565.02 109.2C559.82 111.28 553.7 112.32 546.66 112.32ZM626.468 112.56C619.908 112.56 613.868 111.44 608.348 109.2C602.828 106.96 597.988 103.84 593.828 99.84C589.748 95.84 586.548 91.16 584.228 85.8C581.908 80.36 580.748 74.52 580.748 68.28C580.748 62.04 581.868 56.28 584.108 51C586.428 45.64 589.628 40.96 593.708 36.96C597.788 32.96 602.588 29.88 608.108 27.72C613.628 25.48 619.668 24.36 626.228 24.36C632.788 24.36 638.828 25.48 644.348 27.72C649.868 29.88 654.668 32.96 658.748 36.96C662.828 40.96 665.988 45.64 668.228 51C670.548 56.36 671.708 62.16 671.708 68.4C671.708 74.64 670.548 80.44 668.228 85.8C665.988 91.16 662.828 95.88 658.748 99.96C654.668 103.96 649.868 107.08 644.348 109.32C638.908 111.48 632.948 112.56 626.468 112.56ZM626.228 93.36C631.028 93.36 635.188 92.32 638.708 90.24C642.228 88.16 644.948 85.24 646.868 81.48C648.788 77.72 649.748 73.32 649.748 68.28C649.748 64.6 649.188 61.24 648.068 58.2C647.028 55.16 645.468 52.56 643.388 50.4C641.308 48.16 638.828 46.44 635.948 45.24C633.068 44.04 629.828 43.44 626.228 43.44C621.428 43.44 617.268 44.48 613.748 46.56C610.228 48.56 607.508 51.44 605.588 55.2C603.668 58.96 602.708 63.32 602.708 68.28C602.708 72.12 603.228 75.6 604.268 78.72C605.388 81.76 606.988 84.4 609.068 86.64C611.148 88.8 613.628 90.48 616.508 91.68C619.388 92.8 622.628 93.36 626.228 93.36ZM707.216 112.32C700.096 112.32 693.896 111.24 688.616 109.08C683.416 106.92 678.656 103.52 674.336 98.88L687.896 85.2C690.856 88.32 694.016 90.72 697.376 92.4C700.736 94 704.536 94.8 708.776 94.8C712.376 94.8 715.136 94.2 717.056 93C719.056 91.72 720.056 90 720.056 87.84C720.056 85.84 719.336 84.2 717.896 82.92C716.456 81.56 714.536 80.4 712.136 79.44C709.816 78.4 707.216 77.44 704.336 76.56C701.536 75.6 698.696 74.48 695.816 73.2C693.016 71.84 690.416 70.2 688.016 68.28C685.696 66.36 683.816 63.96 682.376 61.08C680.936 58.2 680.216 54.64 680.216 50.4C680.216 44.96 681.496 40.32 684.056 36.48C686.696 32.64 690.336 29.68 694.976 27.6C699.616 25.52 705.016 24.48 711.176 24.48C717.336 24.48 723.016 25.52 728.216 27.6C733.416 29.68 737.696 32.56 741.056 36.24L727.376 49.8C724.816 47.24 722.216 45.32 719.576 44.04C716.936 42.76 714.056 42.12 710.936 42.12C707.976 42.12 705.656 42.64 703.976 43.68C702.296 44.72 701.456 46.2 701.456 48.12C701.456 50.04 702.176 51.6 703.616 52.8C705.056 54 706.936 55.08 709.256 56.04C711.656 56.92 714.256 57.84 717.056 58.8C719.936 59.76 722.776 60.88 725.576 62.16C728.376 63.44 730.936 65.08 733.256 67.08C735.656 69.08 737.576 71.6 739.016 74.64C740.456 77.68 741.176 81.36 741.176 85.68C741.176 94.16 738.176 100.72 732.176 105.36C726.256 110 717.936 112.32 707.216 112.32ZM774.116 80.52L741.596 25.92H766.196L791.036 70.2H773.756L798.596 25.92H822.716L789.956 80.52H774.116ZM771.596 111V71.76H793.076V111H771.596ZM850.419 112.32C843.299 112.32 837.099 111.24 831.819 109.08C826.619 106.92 821.859 103.52 817.539 98.88L831.099 85.2C834.059 88.32 837.219 90.72 840.579 92.4C843.939 94 847.739 94.8 851.979 94.8C855.579 94.8 858.339 94.2 860.259 93C862.259 91.72 863.259 90 863.259 87.84C863.259 85.84 862.539 84.2 861.099 82.92C859.659 81.56 857.739 80.4 855.339 79.44C853.019 78.4 850.419 77.44 847.539 76.56C844.739 75.6 841.899 74.48 839.019 73.2C836.219 71.84 833.619 70.2 831.219 68.28C828.899 66.36 827.019 63.96 825.579 61.08C824.139 58.2 823.419 54.64 823.419 50.4C823.419 44.96 824.699 40.32 827.259 36.48C829.899 32.64 833.539 29.68 838.179 27.6C842.819 25.52 848.219 24.48 854.379 24.48C860.539 24.48 866.219 25.52 871.419 27.6C876.619 29.68 880.899 32.56 884.259 36.24L870.579 49.8C868.019 47.24 865.419 45.32 862.779 44.04C860.139 42.76 857.259 42.12 854.139 42.12C851.179 42.12 848.859 42.64 847.179 43.68C845.499 44.72 844.659 46.2 844.659 48.12C844.659 50.04 845.379 51.6 846.819 52.8C848.259 54 850.139 55.08 852.459 56.04C854.859 56.92 857.459 57.84 860.259 58.8C863.139 59.76 865.979 60.88 868.779 62.16C871.579 63.44 874.139 65.08 876.459 67.08C878.859 69.08 880.779 71.6 882.219 74.64C883.659 77.68 884.379 81.36 884.379 85.68C884.379 94.16 881.379 100.72 875.379 105.36C869.459 110 861.139 112.32 850.419 112.32ZM912.973 111V26.52H934.453V111H912.973ZM886.933 44.4V25.92H960.493V44.4H886.933ZM970.263 111V25.92H991.743V111H970.263ZM987.303 111V92.88H1033.38V111H987.303ZM987.303 76.44V58.8H1029.06V76.44H987.303ZM987.303 44.04V25.92H1032.66V44.04H987.303ZM1045.5 111V25.92H1060.98L1093.62 75.24H1086.3L1118.82 25.92H1134.3V111H1113.06V61.44L1116.42 62.4L1096.86 91.8H1082.94L1063.5 62.4L1066.86 61.44V111H1045.5Z" fill="url(#paint0_linear_1473_3152)"/>
</g>
<defs>
<filter id="filter0_d_1473_3152" x="0.677246" y="0.359993" width="1157.62" height="136.2" filterUnits="userSpaceOnUse" color-interpolation-filters="sRGB">
<feFlood flood-opacity="0" result="BackgroundImageFix"/>
<feColorMatrix in="SourceAlpha" type="matrix" values="0 0 0 0 0 0 0 0 0 0 0 0 0 0 0 0 0 0 127 0" result="hardAlpha"/>
<feOffset/>
<feGaussianBlur stdDeviation="12"/>
<feComposite in2="hardAlpha" operator="out"/>
<feColorMatrix type="matrix" values="0 0 0 0 0.140132 0 0 0 0 0.584167 0 0 0 0 0.00389468 0 0 0 1 0"/>
<feBlend mode="normal" in2="BackgroundImageFix" result="effect1_dropShadow_1473_3152"/>
<feBlend mode="normal" in="SourceGraphic" in2="effect1_dropShadow_1473_3152" result="shape"/>
</filter>
<linearGradient id="paint0_linear_1473_3152" x1="579.5" y1="-9" x2="579.5" y2="142" gradientUnits="userSpaceOnUse">
<stop stop-color="#5AC27C"/>
<stop offset="1" stop-color="#B2E235"/>
</linearGradient>
</defs>
</svg>
