<svg width="16" height="16" viewBox="0 0 16 16" fill="none" xmlns="http://www.w3.org/2000/svg">
<path d="M5.81829 1.45557C6.08384 1.45557 6.311 1.54751 6.49978 1.7314C6.68857 1.91529 6.78296 2.13984 6.78296 2.40505V6.23285C6.78296 6.49839 6.68857 6.72555 6.49978 6.91434C6.311 7.10313 6.08384 7.19752 5.81829 7.19752H1.99049C1.72495 7.19752 1.5004 7.10313 1.31684 6.91434C1.13329 6.72555 1.04134 6.49839 1.04102 6.23285V2.40505C1.04102 2.13951 1.13296 1.91496 1.31684 1.7314C1.50073 1.54784 1.72528 1.4559 1.99049 1.45557H5.81829ZM5.81829 9.11068C6.08384 9.11068 6.311 9.20263 6.49978 9.38651C6.68857 9.5704 6.78296 9.79495 6.78296 10.0602V13.9032C6.78296 14.1687 6.68857 14.3932 6.49978 14.5768C6.311 14.7604 6.08384 14.8523 5.81829 14.8526H1.99049C1.72495 14.8526 1.5004 14.7607 1.31684 14.5768C1.13329 14.3929 1.04134 14.1684 1.04102 13.9032V10.0602C1.04102 9.79462 1.13296 9.57007 1.31684 9.38651C1.50073 9.20295 1.72528 9.11101 1.99049 9.11068H5.81829ZM13.4886 9.11068C13.7541 9.11068 13.9787 9.20263 14.1622 9.38651C14.3458 9.5704 14.4377 9.79495 14.4381 10.0602V13.9032C14.4381 14.1687 14.3461 14.3932 14.1622 14.5768C13.9784 14.7604 13.7538 14.8523 13.4886 14.8526H9.66079C9.39525 14.8526 9.16809 14.7607 8.9793 14.5768C8.79052 14.3929 8.69613 14.1684 8.69613 13.9032V10.0602C8.69613 9.79462 8.79052 9.57007 8.9793 9.38651C9.16809 9.20295 9.39525 9.11101 9.66079 9.11068H13.4886ZM15.6168 3.13945C15.821 3.34359 15.923 3.58349 15.923 3.85915C15.923 4.13482 15.821 4.36966 15.6168 4.56367L12.7689 7.41162C12.5648 7.61575 12.3275 7.71782 12.057 7.71782C11.7866 7.71782 11.5493 7.61575 11.3452 7.41162L8.49722 4.56367C8.30321 4.36966 8.2062 4.13482 8.2062 3.85915C8.2062 3.58349 8.30321 3.34359 8.49722 3.13945L11.3452 0.291505C11.5493 0.0974939 11.7866 0.000488281 12.057 0.000488281C12.3275 0.000488281 12.5648 0.0974939 12.7689 0.291505L15.6168 3.13945Z" fill="black"/>
</svg>
