<svg width="65" height="65" viewBox="0 0 65 65" fill="none" xmlns="http://www.w3.org/2000/svg">
<rect width="65" height="65" fill="black"/>
<path d="M52.9051 19.6938C49.9956 20.6182 47.1427 21.7141 44.3609 22.9758C28.5126 30.1358 17.9105 40.9865 20.6799 47.2055C21.2424 48.3783 22.1788 49.3275 23.3396 49.9014C27.1121 51.8109 31.3966 52.4402 35.5533 51.6952C39.7101 50.9502 43.5162 48.8709 46.4034 45.7678C49.2905 42.6647 51.104 38.7041 51.5729 34.4774C52.0419 30.2508 51.1412 25.9847 49.0053 22.316L52.9051 19.6938Z" fill="#6000FF"/>
<path d="M47.7171 20.2306C44.838 16.2014 40.5285 13.4051 35.6565 12.4047C30.7845 11.4044 25.7117 12.2742 21.4596 14.8392C17.2075 17.4042 14.0919 21.4737 12.7402 26.2284C11.3884 30.9832 11.9008 36.0699 14.1743 40.4645C17.8882 35.0799 26.1252 28.9217 36.5919 24.2575C40.1947 22.6434 43.9134 21.2974 47.7171 20.2306Z" fill="#6000FF"/>
</svg>
