<svg width="48" height="48" viewBox="0 0 48 48" fill="none" xmlns="http://www.w3.org/2000/svg">
<g clip-path="url(#clip0_1473_2761)">
<path d="M20.2236 46.0719C20.0749 44.9723 21.1992 44.1897 21.9305 44.1793C22.9557 44.1654 23.7972 45.0088 23.8117 46.0762C23.8271 47.1584 23.0488 48.0113 22.0313 47.9992C21.1198 47.9879 20.1219 47.2496 20.2236 46.0719Z" fill="#A6FF8A"/>
<path d="M31.4185 44.7812C31.4065 43.7346 32.1352 42.8973 33.069 42.8843C34.1659 42.8687 35.092 43.7112 35.0997 44.7326C35.1074 45.7071 34.2052 46.5591 33.1801 46.6208C32.4206 46.6668 31.2707 45.5429 31.4176 44.7812H31.4185Z" fill="#A6FF8A"/>
<path d="M25.8653 45.8972C25.8935 44.9297 26.6974 44.1393 27.615 44.1784C28.5598 44.2175 29.4526 45.1598 29.4253 46.0892C29.3954 47.1028 28.541 48.0399 27.6628 47.9678C26.4907 47.8723 25.7329 46.8639 25.8653 45.8981V45.8972Z" fill="#A6FF8A"/>
<path d="M16.3807 42.972C17.3862 42.9954 18.1295 43.7815 18.1038 44.7951C18.0808 45.7366 17.2692 46.5408 16.361 46.5226C15.4452 46.5052 14.6626 45.6471 14.6797 44.6796C14.696 43.7337 15.4759 42.9503 16.3807 42.972Z" fill="#A6FF8A"/>
<path d="M36.5367 42.007C36.5418 41.0212 37.2816 40.2587 38.2231 40.2665C39.238 40.2752 39.9548 41.0073 39.942 42.0244C39.93 42.9894 39.1671 43.7537 38.218 43.7519C37.2645 43.7502 36.5307 42.9885 36.5367 42.007Z" fill="#A6FF8A"/>
<path d="M9.54459 42.0392C9.54971 41.0239 10.2178 40.3412 11.1977 40.349C12.1434 40.356 12.8952 41.1585 12.8901 42.1564C12.885 43.1005 12.152 43.7676 11.1328 43.7537C10.1887 43.7407 9.53861 43.0397 9.54373 42.0392H9.54459Z" fill="#A6FF8A"/>
<path d="M16.8173 40.5583C16.825 39.6212 17.5674 38.8994 18.5054 38.9185C19.4648 38.9376 20.1526 39.6568 20.1286 40.6174C20.1064 41.5441 19.4085 42.2641 18.5336 42.265C17.6409 42.265 16.8096 41.4399 16.8164 40.5583H16.8173Z" fill="#A6FF8A"/>
<path d="M13.8058 36.6317C14.6559 36.6482 15.4384 37.462 15.4342 38.3236C15.4299 39.2191 14.6157 40.0103 13.7033 40.0077C12.8669 40.0051 12.1015 39.1609 12.1356 38.2784C12.1698 37.3951 12.9609 36.6152 13.8058 36.6317Z" fill="#A6FF8A"/>
<path d="M25.0256 41.6266C25.0308 42.5403 24.3823 43.2022 23.4665 43.2195C22.5387 43.2369 21.8527 42.5421 21.8467 41.5797C21.8407 40.6052 22.4917 39.9312 23.4409 39.9304C24.3388 39.9304 25.0205 40.6591 25.0256 41.6258V41.6266Z" fill="#A6FF8A"/>
<path d="M43.871 38.0187C43.8146 39.1496 43.2115 39.8079 42.2837 39.7523C41.4012 39.6993 40.7707 38.9463 40.8168 38.0005C40.8553 37.2327 41.5985 36.5161 42.3127 36.5596C43.2175 36.6151 43.9086 37.2622 43.8702 38.0187H43.871Z" fill="#A6FF8A"/>
<path d="M9.69558 36.5448C8.84211 36.5378 8.16634 35.8335 8.17488 34.9597C8.18257 34.1511 8.91302 33.4232 9.72035 33.4189C10.5473 33.4146 11.2761 34.1589 11.2692 34.9979C11.2615 35.8517 10.549 36.5517 9.69643 36.5448H9.69558Z" fill="#A6FF8A"/>
<path d="M28.6196 42.8052C27.6167 42.7991 27.052 42.2459 27.0596 41.2766C27.0665 40.3924 27.7354 39.715 28.6043 39.7123C29.4449 39.7097 30.0754 40.3837 30.072 41.2801C30.0686 42.1625 29.4517 42.8104 28.6188 42.8052H28.6196Z" fill="#A6FF8A"/>
<path d="M11.5171 32.4288C11.5222 31.5107 12.151 30.8914 13.0745 30.8958C13.8562 30.8992 14.5149 31.6054 14.5072 32.4314C14.4995 33.2756 13.8033 33.9496 12.9506 33.94C12.1279 33.9305 11.5128 33.2825 11.5179 32.4279L11.5171 32.4288Z" fill="#A6FF8A"/>
<path d="M9.97763 27.2358C10.8217 27.2375 11.4385 27.8386 11.4342 28.6567C11.43 29.5504 10.7431 30.2835 9.92295 30.2687C9.131 30.2548 8.43302 29.52 8.44498 28.7132C8.45694 27.8889 9.13612 27.234 9.97763 27.2358Z" fill="#A6FF8A"/>
<path d="M16.7413 33.6664C17.5589 33.6743 18.1868 34.2996 18.1885 35.1074C18.1902 36.0046 17.517 36.722 16.6849 36.7098C15.9177 36.6985 15.1933 35.9055 15.2095 35.0943C15.2249 34.317 15.9305 33.6595 16.7413 33.6673V33.6664Z" fill="#A6FF8A"/>
<path d="M6.50216 29.2464C7.28558 29.2551 7.92802 29.8518 7.9229 30.5649C7.91606 31.496 7.25311 32.209 6.39623 32.2073C5.58633 32.2056 5.00112 31.5507 5.01565 30.6648C5.02846 29.884 5.70679 29.2369 6.50216 29.2464Z" fill="#A6FF8A"/>
<path d="M6.46899 24.525C6.47156 23.6625 7.11571 22.9842 7.93074 22.9877C8.76626 22.9912 9.37027 23.5965 9.3677 24.4269C9.36429 25.2789 8.67998 25.9555 7.82993 25.9468C7.07214 25.939 6.46729 25.3067 6.46985 24.525H6.46899Z" fill="#A6FF8A"/>
<path d="M34.7701 39.7184C34.7718 40.6304 34.2447 41.155 33.3297 41.1524C32.5574 41.1498 31.9542 40.5375 31.9517 39.7523C31.9483 38.9185 32.6138 38.1924 33.3681 38.2063C34.2139 38.2219 34.7692 38.8204 34.7709 39.7184H34.7701Z" fill="#A6FF8A"/>
<path d="M8.11345 38.2228C8.11943 39.0071 7.52739 39.5855 6.71493 39.589C5.97338 39.5916 5.30273 38.9367 5.29334 38.202C5.28309 37.389 5.90759 36.7298 6.70297 36.7133C7.52055 36.6968 8.10662 37.323 8.11345 38.2228Z" fill="#A6FF8A"/>
<path d="M19.6194 36.8566C19.6246 35.969 20.1491 35.3983 20.9564 35.4018C21.7082 35.4053 22.3336 36.0654 22.3456 36.8696C22.3567 37.5966 21.6852 38.2697 20.9436 38.2758C20.0611 38.2828 19.6143 37.8042 19.6194 36.8566Z" fill="#A6FF8A"/>
<path d="M4.30838 24.4608C5.05164 24.4651 5.69067 25.1026 5.68042 25.8287C5.66932 26.5974 4.96536 27.3435 4.26054 27.3339C3.57538 27.3244 2.89363 26.5826 2.91071 25.8635C2.93036 25.0071 3.48055 24.4564 4.30924 24.4608H4.30838Z" fill="#A6FF8A"/>
<path d="M5.53432 19.8036C5.55824 18.9221 6.08193 18.3593 6.86364 18.3749C7.65303 18.3905 8.28694 19.0124 8.27498 19.7593C8.26216 20.5523 7.63594 21.182 6.88158 21.1594C6.04178 21.1342 5.51296 20.6027 5.53432 19.8045V19.8036Z" fill="#A6FF8A"/>
<path d="M13.7135 28.7201C12.8635 28.694 12.2544 28.1043 12.2843 27.3365C12.3107 26.6616 13.0113 25.9477 13.6358 25.9581C14.4508 25.972 15.0582 26.5965 15.0275 27.3886C15.001 28.0939 14.3628 28.7392 13.7127 28.7192L13.7135 28.7201Z" fill="#A6FF8A"/>
<path d="M10.2271 23.5358C10.2262 22.7654 10.7832 22.2008 11.5427 22.2026C12.286 22.2034 12.8908 22.8262 12.8891 23.5862C12.8874 24.3566 12.2689 24.9871 11.506 24.9958C10.7431 25.0045 10.2279 24.4174 10.2271 23.5358Z" fill="#A6FF8A"/>
<path d="M11.7085 15.1787C11.7067 15.9621 11.1531 16.5405 10.4073 16.5379C9.63587 16.5345 9.05152 15.969 9.04981 15.2238C9.0481 14.3978 9.62135 13.7821 10.3851 13.7899C11.1617 13.7977 11.7093 14.3735 11.7076 15.1795L11.7085 15.1787Z" fill="#A6FF8A"/>
<path d="M9.21123 19.5691C9.20525 18.6858 9.72297 18.13 10.5628 18.1204C11.3112 18.1117 11.869 18.691 11.8707 19.4788C11.8716 20.1684 11.2334 20.8294 10.567 20.8285C9.7879 20.8276 9.21636 20.297 9.21123 19.57V19.5691Z" fill="#A6FF8A"/>
<path d="M45.3378 34.6366C44.5698 34.6288 44.0512 34.0738 44.0589 33.2669C44.0658 32.5321 44.6202 31.9433 45.3105 31.9372C46.0734 31.9302 46.6262 32.4939 46.6279 33.28C46.6296 34.0964 46.1084 34.6436 45.337 34.6358L45.3378 34.6366Z" fill="#A6FF8A"/>
<path d="M15.0685 30.3338C15.0599 29.6581 15.6323 29.0657 16.3055 29.0527C17.0787 29.038 17.6519 29.586 17.6622 30.3477C17.6724 31.0842 17.0829 31.6714 16.3286 31.6775C15.6263 31.6835 15.0779 31.0981 15.0693 30.333L15.0685 30.3338Z" fill="#A6FF8A"/>
<path d="M3.15076 34.4725C2.34001 34.4725 1.87269 34.0217 1.87525 33.2391C1.87782 32.5547 2.47242 31.9137 3.09522 31.9259C3.74109 31.9381 4.42113 32.6702 4.4049 33.3373C4.38952 33.973 3.83763 34.4725 3.15076 34.4733V34.4725Z" fill="#A6FF8A"/>
<path d="M26.6574 37.5428C26.6445 38.2888 26.1072 38.8108 25.3656 38.7961C24.7599 38.7848 24.2354 38.1499 24.2448 37.4411C24.2542 36.7411 24.7608 36.2504 25.4536 36.2712C26.208 36.2938 26.6702 36.7819 26.6574 37.5436V37.5428Z" fill="#A6FF8A"/>
<path d="M12.4534 11.0435C12.4568 11.6385 11.9152 12.1344 11.2522 12.1431C10.5619 12.1527 10.0536 11.6272 10.051 10.9046C10.0485 10.0986 10.4902 9.62172 11.236 9.62693C11.8938 9.63128 12.45 10.2783 12.4542 11.0435H12.4534Z" fill="#A6FF8A"/>
<path d="M6.8567 16.0498C6.22451 16.0428 5.69312 15.4939 5.70252 14.8582C5.71277 14.1911 6.27406 13.6431 6.94982 13.6431C7.58031 13.6431 8.10316 14.1859 8.10401 14.8408C8.10401 15.5061 7.53674 16.0567 6.8567 16.0498Z" fill="#A6FF8A"/>
<path d="M36.4539 36.8749C36.4607 36.1861 36.9682 35.6884 37.6584 35.6936C38.2351 35.698 38.7921 36.3242 38.7742 36.9461C38.7562 37.5593 38.1728 38.1186 37.5645 38.1056C36.928 38.0917 36.4479 37.5601 36.4547 36.8749H36.4539Z" fill="#A6FF8A"/>
<path d="M19.8296 33.7733C19.1231 33.7785 18.6182 33.2747 18.6071 32.553C18.5977 31.9207 19.0812 31.4091 19.6921 31.4048C20.3354 31.4004 20.8377 31.9155 20.8488 32.5912C20.8608 33.2973 20.4541 33.7681 19.8296 33.7733Z" fill="#A6FF8A"/>
<path d="M4.27319 20.6869C4.26892 21.3053 3.83834 21.7544 3.26253 21.7413C2.64059 21.7283 2.04171 21.0943 2.05794 20.4663C2.07161 19.9435 2.62948 19.4206 3.17454 19.4206C3.84432 19.4206 4.27917 19.9217 4.27319 20.6869Z" fill="#A6FF8A"/>
<path d="M29.949 37.9362C29.2903 37.9362 28.8521 37.4924 28.8487 36.821C28.8452 36.1704 29.316 35.691 29.9482 35.7032C30.5522 35.7145 31.075 36.2321 31.0861 36.8314C31.0972 37.4324 30.5787 37.9371 29.949 37.9362Z" fill="#A6FF8A"/>
<path d="M12.0169 6.9805C12.0126 6.30738 12.4791 5.79581 13.1002 5.79407C13.6871 5.79233 14.1809 6.29262 14.1809 6.89017C14.1809 7.55548 13.7153 8.0436 13.072 8.05141C12.4124 8.05923 12.022 7.66231 12.0169 6.9805Z" fill="#A6FF8A"/>
<path d="M7.89567 9.17183C8.57571 9.18051 8.98066 9.57483 8.96614 10.2167C8.95418 10.7873 8.48516 11.2589 7.92985 11.2589C7.28996 11.2589 6.87647 10.8273 6.87818 10.1602C6.87989 9.54009 7.26689 9.16314 7.89567 9.17096V9.17183Z" fill="#A6FF8A"/>
<path d="M46.9732 26.8223C47.5456 26.8154 48.0001 27.2497 47.9993 27.8029C47.9993 28.318 47.5097 28.7991 46.9698 28.8148C46.482 28.8287 46.036 28.3901 46.0335 27.8924C46.0309 27.2922 46.4376 26.8284 46.9724 26.8215L46.9732 26.8223Z" fill="#A6FF8A"/>
<path d="M24.6916 33.8002C24.6976 34.3613 24.2516 34.8068 23.6852 34.806C23.1803 34.806 22.7438 34.3752 22.7446 33.8792C22.7463 33.3199 23.2 32.8187 23.7168 32.8066C24.2397 32.7944 24.6856 33.2487 24.6916 33.8002Z" fill="#A6FF8A"/>
<path d="M14.7601 3.56017C14.7541 3.04165 15.1616 2.58827 15.6426 2.57698C16.1475 2.56569 16.6421 3.04773 16.6481 3.55843C16.6541 4.0674 16.2116 4.49298 15.6725 4.49732C15.1539 4.5008 14.7669 4.10301 14.7609 3.56017H14.7601Z" fill="#A6FF8A"/>
<path d="M40.2136 33.0455C40.2153 32.5148 40.5682 32.1821 41.1218 32.1891C41.648 32.196 42.006 32.5599 42.0086 33.0941C42.0111 33.5753 41.5635 34.0121 41.0594 34.02C40.5451 34.0278 40.2119 33.6439 40.2136 33.0446V33.0455Z" fill="#A6FF8A"/>
<path d="M0.865446 26.9804C1.34643 26.9804 1.67791 27.3313 1.67278 27.8359C1.66936 28.2233 1.22597 28.6228 0.798809 28.6237C0.372503 28.6254 -0.0076695 28.2233 0.000873702 27.7812C0.0102712 27.2939 0.348582 26.9804 0.866301 26.9804H0.865446Z" fill="#A6FF8A"/>
<path d="M33.3782 35.0909C33.3748 34.5897 33.6593 34.2788 34.1189 34.2823C34.6212 34.2857 35.0125 34.6366 35.0117 35.0813C35.01 35.539 34.6229 35.9195 34.1548 35.9229C33.6789 35.9264 33.3816 35.6085 33.3782 35.0909Z" fill="#A6FF8A"/>
<path d="M3.26169 15.9603C2.78583 15.949 2.4441 15.5721 2.4629 15.0779C2.47913 14.6514 2.8499 14.2971 3.27877 14.2971C3.74267 14.2971 4.10661 14.681 4.09978 15.1647C4.0938 15.6138 3.71704 15.9716 3.26083 15.9612L3.26169 15.9603Z" fill="#A6FF8A"/>
<path d="M28.5881 33.9809C28.5941 34.4377 28.2609 34.7964 27.8286 34.7999C27.4451 34.8034 27.0786 34.4464 27.0726 34.0651C27.0666 33.656 27.457 33.2687 27.8748 33.2704C28.2703 33.2721 28.583 33.5831 28.5881 33.9809Z" fill="#A6FF8A"/>
<path d="M10.8148 5.72108C10.8002 6.1458 10.4115 6.50277 9.98949 6.47845C9.62469 6.45761 9.35643 6.10585 9.38206 5.68113C9.40342 5.31982 9.77334 4.93766 10.0954 4.94374C10.4568 4.94982 10.8267 5.35021 10.8139 5.72108H10.8148Z" fill="#A6FF8A"/>
<path d="M19.065 1.36882C18.6344 1.3419 18.3491 1.04399 18.373 0.647065C18.3943 0.306597 18.766 -0.0182383 19.1137 1.11555e-06C19.4896 0.0199776 19.8253 0.389108 19.7963 0.750422C19.7655 1.1404 19.4657 1.39314 19.065 1.36796V1.36882Z" fill="#A6FF8A"/>
<path d="M47.3422 22.5586C47.0004 22.5534 46.8168 22.3797 46.8091 22.0297C46.8005 21.6441 47.0329 21.4174 47.4165 21.4226C47.7796 21.4278 47.9658 21.6293 47.9889 21.9793C48.0119 22.325 47.7326 22.5638 47.3422 22.5586Z" fill="#A6FF8A"/>
<path d="M43.9017 28.4856C43.871 28.7549 43.7283 28.9642 43.4019 28.9824C43.1132 28.998 42.7928 28.7192 42.8278 28.4648C42.8697 28.1582 43.0252 27.9132 43.3592 27.8759C43.6061 27.8481 43.8949 28.1686 43.9017 28.4856Z" fill="#A6FF8A"/>
<path d="M37.8071 32.6198C37.5542 32.6007 37.3722 32.5121 37.356 32.2394C37.3406 31.978 37.6516 31.628 37.8874 31.6566C38.1727 31.6922 38.3146 31.905 38.318 32.1691C38.3223 32.5034 38.06 32.579 37.8071 32.6198Z" fill="#A6FF8A"/>
</g>
<defs>
<clipPath id="clip0_1473_2761">
<rect width="48" height="48" fill="white"/>
</clipPath>
</defs>
</svg>
