<svg width="44" height="44" viewBox="0 0 44 44" fill="none" xmlns="http://www.w3.org/2000/svg">
<g clip-path="url(#clip0_595_476)">
<path d="M2.84464 41.4009C0.176078 38.735 -0.175877 34.178 2.02253 28.4653C2.87783 26.2989 3.93761 24.2189 5.1875 22.2535L5.2768 22.1117L5.19013 21.9698C3.93975 20.0044 2.87911 17.9244 2.02253 15.7581C-0.173251 10.0454 0.176078 5.48835 2.84464 2.81979C4.31549 1.34894 6.42723 0.560976 8.97759 0.560976C12.7204 0.560976 17.2984 2.23145 21.9973 5.17317L22.1365 5.26247L22.2757 5.17317C26.9798 2.23145 31.5526 0.55835 35.2954 0.55835C37.8484 0.55835 39.9602 1.34631 41.4284 2.81717C44.0917 5.4831 44.4437 10.0454 42.2479 15.7555C41.3943 17.9224 40.3331 20.0026 39.0803 21.9672L38.991 22.1091L39.0803 22.2483C40.3935 24.3495 41.4704 26.4402 42.2453 28.46C44.4437 34.1727 44.0943 38.7324 41.431 41.3983C39.9602 42.8692 37.8458 43.6598 35.2954 43.6598C31.5526 43.6598 26.9746 41.9867 22.2757 39.0449L22.1339 38.9609L21.9947 39.0476C17.2932 41.9893 12.7178 43.6624 8.97496 43.6624C6.42197 43.6624 4.31024 42.8744 2.84201 41.4036L2.84464 41.4009ZM38.6469 29.8468C38.1186 28.4981 37.4955 27.1886 36.7821 25.928L36.5851 25.5813L36.3434 25.8965C33.3269 29.7998 29.8246 33.3021 25.9214 36.3186L25.6062 36.5629L25.9529 36.7572C29.3884 38.6851 32.6768 39.8093 35.2928 39.8093C36.7716 39.8093 37.9351 39.4468 38.7021 38.6798C39.49 37.8919 39.8472 36.6469 39.8262 35.1445C39.8052 33.6343 39.4086 31.8246 38.6469 29.8468ZM21.9816 34.1806L22.1339 34.2909L22.2862 34.1806C26.8905 30.8829 30.9277 26.8581 34.2396 22.264L34.3525 22.1117L34.2396 21.9593C30.9333 17.3597 26.8953 13.3333 22.2862 10.0401L22.1339 9.93507L21.9816 10.0454C17.3766 13.3421 13.3385 17.366 10.0256 21.9593L9.91526 22.1117L10.0256 22.2666C11.6837 24.5611 13.5229 26.7192 15.5255 28.72C17.5252 30.7139 19.6844 32.541 21.9816 34.1832V34.1806ZM38.7021 5.54614C37.9325 4.77656 36.7689 4.4141 35.2928 4.4141C32.6715 4.4141 29.3884 5.54088 25.9529 7.46876L25.6062 7.66312L25.9214 7.90476C29.8272 10.9183 33.3299 14.421 36.3434 18.3268L36.5851 18.642L36.7794 18.2953C37.5201 16.9716 38.1557 15.6583 38.6469 14.3765C39.4086 12.3988 39.8078 10.5891 39.8288 9.07882C39.8472 7.57645 39.49 6.3341 38.7021 5.54614ZM5.61825 14.3765C6.14881 15.7266 6.77393 17.0372 7.48835 18.298L7.68271 18.6394L7.92435 18.3268C10.9379 14.421 14.4406 10.9184 18.3464 7.90476L18.6616 7.66312L18.3149 7.46876C14.8794 5.53826 11.5936 4.4141 8.97496 4.4141C7.49623 4.4141 6.33267 4.77656 5.56572 5.54351C4.77776 6.3341 4.42055 7.57645 4.44157 9.07882C4.45995 10.5891 4.86181 12.3988 5.61825 14.3765ZM5.61825 29.8468C4.85656 31.8246 4.46258 33.6343 4.44157 35.1445C4.42055 36.6469 4.77514 37.8893 5.56572 38.6772C6.3353 39.4468 7.49885 39.8093 8.97496 39.8093C11.5936 39.8093 14.8768 38.6851 18.3149 36.7572L18.659 36.5629L18.3438 36.3186C14.4389 33.3048 10.9371 29.8022 7.92435 25.8965L7.68008 25.5813L7.48572 25.928C6.77393 27.1888 6.15144 28.4994 5.62088 29.8468H5.61825Z" fill="white"/>
<path d="M23.9881 26.5871C23.2521 26.8928 22.4521 27.0121 21.659 26.9344C20.8659 26.8567 20.1042 26.5843 19.4416 26.1415C18.779 25.6988 18.236 25.0993 17.8607 24.3962C17.4854 23.6932 17.2895 22.9084 17.2904 22.1115C17.2899 21.2337 17.5279 20.3723 17.9789 19.6192C18.4298 18.8661 19.0769 18.2497 19.8509 17.8357C20.625 17.4217 21.4969 17.2258 22.3736 17.2688C23.2504 17.3117 24.099 17.592 24.8288 18.0797C25.5586 18.5674 26.1423 19.2442 26.5174 20.0378C26.8926 20.8314 27.0451 21.7119 26.9588 22.5855C26.8725 23.459 26.5505 24.2927 26.0273 24.9975C25.5041 25.7023 24.7992 26.2517 23.9881 26.5871Z" fill="white"/>
</g>
<defs>
<clipPath id="clip0_595_476">
<rect width="44" height="44" fill="white"/>
</clipPath>
</defs>
</svg>
