<svg width="105" height="75" viewBox="0 0 105 75" fill="none" xmlns="http://www.w3.org/2000/svg">
<g clip-path="url(#clip0_595_445)">
<path d="M101.564 6.08898C100.499 5.57335 100.041 6.54835 99.4207 7.04054C99.2107 7.2046 99.0293 7.41554 98.848 7.60304C97.2968 9.23898 95.488 10.303 93.1207 10.1765C89.6557 9.98898 86.7014 11.0577 84.0859 13.664C83.5227 10.4484 81.6805 8.53117 78.8741 7.29835C77.4041 6.65617 75.915 6.01867 74.8936 4.62648C74.173 3.6421 73.9773 2.54054 73.6098 1.45773C73.3855 0.801479 73.1564 0.131166 72.3927 0.0139786C71.5575 -0.112584 71.233 0.576479 70.9036 1.14367C69.5959 3.49679 69.09 6.08898 69.1377 8.70929C69.257 14.6015 71.7866 19.2984 76.8218 22.6359C77.3946 23.0249 77.5377 23.4093 77.3564 23.9671C77.0127 25.1155 76.607 26.2359 76.2443 27.3796C76.0152 28.1202 75.6716 28.2843 74.8793 27.9655C72.1667 26.8224 69.7036 25.1768 67.6248 23.1187C64.0452 19.7202 60.8093 15.9655 56.7764 13.0265C55.8424 12.3478 54.884 11.7021 53.9032 11.0905C49.7843 7.15304 54.4425 3.92804 55.5164 3.54367C56.6427 3.14992 55.9125 1.77648 52.2709 1.79054C48.6245 1.80929 45.2932 3.0046 41.0455 4.59367C40.4157 4.83599 39.7658 5.02419 39.103 5.15617C35.1344 4.42748 31.0771 4.28686 27.0661 4.73898C19.1911 5.61085 12.9055 9.2671 8.28068 15.5202C2.73 23.0155 1.42227 31.5562 3.02113 40.453C4.70113 49.828 9.56932 57.5952 17.053 63.6702C24.8086 69.9609 33.7432 73.0452 43.9377 72.4593C50.1232 72.103 57.0198 71.2874 64.7945 64.8187C66.7609 65.7749 68.8132 66.1546 72.2305 66.4499C74.8555 66.6937 77.3898 66.3187 79.3466 65.9202C82.4202 65.2827 82.2102 62.489 81.0934 61.9734C72.1016 57.8484 74.068 59.5265 72.2734 58.1765C76.8505 52.8468 83.7423 47.3202 86.4389 29.4093C86.6489 27.989 86.4675 27.0984 86.4389 25.9405C86.4198 25.2421 86.5821 24.9655 87.3934 24.8859C89.6555 24.6622 91.8502 24.0011 93.8509 22.9405C99.688 19.7999 102.031 14.6624 102.59 8.49835C102.671 7.55148 102.571 6.57648 101.564 6.08429V6.08898ZM50.7484 61.589C42.0286 54.8437 37.7952 52.6265 36.0484 52.7296C34.4161 52.814 34.7073 54.6562 35.0652 55.8515C35.447 57.0327 35.9339 57.853 36.6164 58.8843C37.0984 59.5734 37.4182 60.5999 36.1486 61.3687C33.3327 63.0843 28.4502 60.7921 28.2259 60.6749C22.5368 57.3937 17.7832 53.0437 14.4327 47.0999C11.2064 41.3812 9.32591 35.2405 9.02045 28.6921C8.93454 27.1077 9.40704 26.5452 11.0107 26.264C13.1178 25.8698 15.2761 25.8144 17.4014 26.0999C26.2977 27.3796 33.8768 31.303 40.2245 37.4905C43.8614 41.0296 46.6009 45.2484 49.4264 49.3687C52.4284 53.7468 55.6643 57.914 59.7832 61.3359C61.2293 62.5312 62.3986 63.4452 63.5059 64.1155C60.1555 64.4859 54.5666 64.5609 50.7532 61.589H50.7484ZM54.9293 35.1468C54.9343 34.8457 55.0492 34.5564 55.2532 34.3315C55.4572 34.1067 55.7366 33.9612 56.0406 33.9218C56.3445 33.8823 56.6528 33.9514 56.9093 34.1164C57.1657 34.2815 57.3533 34.5315 57.4378 34.821C57.5223 35.1105 57.4981 35.4201 57.3696 35.6936C57.2411 35.967 57.0169 36.186 56.7378 36.3107C56.4587 36.4354 56.1433 36.4574 55.849 36.3729C55.5547 36.2883 55.3012 36.1027 55.1345 35.8499C54.9946 35.6399 54.9231 35.393 54.9293 35.1421V35.1468ZM67.9111 41.6999C67.1334 42.0524 66.3009 42.2742 65.4484 42.3562C64.2474 42.3922 63.0701 42.0233 62.1123 41.3109C60.9716 40.3734 60.1602 39.8484 59.8118 38.1984C59.6953 37.3959 59.7163 36.58 59.8739 35.7843C60.1745 34.439 59.8452 33.5812 58.8859 32.7984C58.0936 32.1562 57.1057 31.9874 56.008 31.9874C55.6317 31.9659 55.2665 31.8549 54.9436 31.664C54.4855 31.439 54.1132 30.8765 54.4711 30.1874C54.5857 29.9671 55.1393 29.4327 55.273 29.3296C56.7525 28.4999 58.4707 28.7671 60.06 29.3952C61.53 29.9859 62.6373 31.0687 64.2361 32.6015C65.8732 34.453 66.1595 34.9734 67.0998 36.3609C67.8348 37.4484 68.503 38.5734 68.9611 39.8484C69.2427 40.6452 68.8752 41.2968 67.9111 41.6999Z" fill="white"/>
</g>
<defs>
<clipPath id="clip0_595_445">
<rect width="105" height="75" fill="white"/>
</clipPath>
</defs>
</svg>
