<svg width="61" height="51" viewBox="0 0 61 51" fill="none" xmlns="http://www.w3.org/2000/svg">
<path d="M17.2456 50.4093C21.1228 50.4093 24.538 49.7668 27.4911 48.4816C30.4442 47.1965 32.721 45.3931 34.3214 43.0715C35.9219 40.7494 36.7221 38.0556 36.7221 34.9902C36.7221 31.4282 35.6062 28.5089 33.3743 26.2321C31.1428 23.9553 27.9305 22.3211 23.7376 21.3295L18.3274 19.7741C15.7575 19.1879 13.9541 18.5343 12.9172 17.8131C11.7 16.9564 11.2493 15.7841 11.565 14.296C11.8354 12.8985 12.4329 11.8505 13.3575 11.1519C14.282 10.4533 15.6457 10.1041 17.4487 10.1041C20.9654 10.1041 24.1212 10.4647 26.9163 11.1859C28.9452 11.7268 30.6811 12.4031 32.1239 13.2148C32.8904 13.6207 33.4313 13.9813 33.7466 14.2966V4.28762L32.8673 3.6794C32.1009 3.22826 31.1767 2.79995 30.0949 2.39447C28.6073 1.85318 26.9164 1.42487 25.0225 1.10954C22.7235 0.703669 20.1989 0.500732 17.4487 0.500732C11.8579 0.500732 7.52969 1.83074 4.4642 4.49075C1.48846 7.06061 0.000595703 10.5999 0.000595703 15.1086C0.000595703 18.6701 1.05995 21.5328 3.17867 23.6968C5.29739 25.8608 8.52094 27.4615 12.8493 28.4988L13.7959 28.7013L19.1388 30.2567C20.6264 30.6173 21.7648 31.0119 22.5539 31.4404C23.343 31.8685 23.8952 32.4096 24.2106 33.0637C24.5263 33.7177 24.6842 34.6083 24.6842 35.7354C24.6842 37.223 23.9854 38.3839 22.5879 39.2179C21.1904 40.0522 19.4094 40.4694 17.245 40.4694C13.6382 40.4694 10.347 39.9508 7.37123 38.9135C5.25251 38.1474 3.38161 37.1782 1.75852 36.0058C0.946771 35.4197 0.360599 34.9012 0 34.4504V45.4733L0.405674 46.0148C0.856423 46.4203 1.39752 46.826 2.02896 47.2318C2.88559 47.7728 3.89987 48.2688 5.07182 48.7199C6.55988 49.2155 8.22805 49.6212 10.0763 49.9369C12.2407 50.2527 14.6303 50.4105 17.245 50.4105L17.2456 50.4093ZM53.7646 49.6653C55.8384 49.6653 57.563 49.0003 58.9383 47.6703C60.3136 46.3403 61.0012 44.6608 61.0012 42.6318C61.0012 40.6029 60.3249 38.9347 58.9722 37.6273C57.6196 36.32 55.8837 35.6663 53.7646 35.6663C51.6455 35.6663 49.9098 36.32 48.5575 37.6273C47.2049 38.9347 46.5286 40.6142 46.5286 42.6658C46.5286 44.717 47.2049 46.3965 48.5575 47.7042C49.9098 49.0116 51.6455 49.6653 53.7646 49.6653Z" fill="white"/>
</svg>
