<svg width="61" height="62" viewBox="0 0 61 62" fill="none" xmlns="http://www.w3.org/2000/svg">
<path d="M18.0822 17.0571V50.6071H12.4179V17.0571H3.92145V11.3928H26.7964V17.0571H18.0822ZM36.3822 14.6607H55.9893V11.3928H33.7679L29.1929 32.0893L32.2429 32.9607L36.3822 14.6607Z" fill="white"/>
<path d="M42.9179 22.0679H41.6107L40.9572 24.4643L40.7393 25.3357C41.3929 25.1179 42.2643 25.1179 42.9179 25.1179C49.0179 25.1179 54.0286 30.1286 54.0286 36.2286C54.0286 42.3286 49.0179 47.3393 42.9179 47.3393C38.5607 47.3393 34.6393 44.725 32.8964 40.8036L32.2429 41.0214L29.8464 42.1107C32.025 47.1214 37.2536 50.6072 42.9179 50.6072C50.7607 50.6072 57.2964 44.2893 57.2964 36.2286C57.0786 28.3857 50.7607 22.0679 42.9179 22.0679Z" fill="white"/>
<path d="M55.9893 19.6714V16.4036H37.6893L33.55 33.1786L36.8178 33.8321C37.6893 31.4357 40.0857 29.9107 42.7 29.9107C46.1857 29.9107 49.0178 32.7428 49.0178 36.2286C49.0178 39.7143 46.1857 42.5464 42.7 42.5464C40.3036 42.5464 37.9071 41.0214 37.0357 38.8429L34.2036 40.15C35.7286 43.6357 39.2143 45.8143 42.9178 45.8143C48.1464 45.8143 52.5036 41.4571 52.5036 36.2286C52.5036 31 48.1464 26.6428 42.9178 26.6428C41.3928 26.6428 39.8678 27.0786 38.3428 27.7321L40.3036 19.4536H55.9893V19.6714Z" fill="white"/>
</svg>
